<svg width="16" height="16" viewBox="0 0 16 16" fill="none" xmlns="http://www.w3.org/2000/svg">
<g clip-path="url(#clip0_8002_2211)">
<path d="M12.6663 2.66675H3.33301C2.80257 2.66675 2.29387 2.87746 1.91879 3.25253C1.54372 3.62761 1.33301 4.13631 1.33301 4.66675V11.3334C1.33301 11.8638 1.54372 12.3726 1.91879 12.7476C2.29387 13.1227 2.80257 13.3334 3.33301 13.3334H12.6663C13.1968 13.3334 13.7055 13.1227 14.0806 12.7476C14.4556 12.3726 14.6663 11.8638 14.6663 11.3334V4.66675C14.6663 4.13631 14.4556 3.62761 14.0806 3.25253C13.7055 2.87746 13.1968 2.66675 12.6663 2.66675V2.66675ZM12.2197 4.00008L7.99967 7.16675L3.77967 4.00008H12.2197ZM12.6663 12.0001H3.33301C3.1562 12.0001 2.98663 11.9298 2.8616 11.8048C2.73658 11.6798 2.66634 11.5102 2.66634 11.3334V4.83341L7.59967 8.53341C7.71507 8.61996 7.85543 8.66675 7.99967 8.66675C8.14392 8.66675 8.28428 8.61996 8.39967 8.53341L13.333 4.83341V11.3334C13.333 11.5102 13.2628 11.6798 13.1377 11.8048C13.0127 11.9298 12.8432 12.0001 12.6663 12.0001Z" fill="#899CC9"/>
</g>
<defs>
<clipPath id="clip0_8002_2211">
<rect width="16" height="16" fill="white"/>
</clipPath>
</defs>
</svg>
