<svg width="16" height="16" viewBox="0 0 16 16" fill="none" xmlns="http://www.w3.org/2000/svg">
<path d="M11.3337 5.3334H10.667V4.0734C10.667 3.36616 10.386 2.68788 9.88594 2.18779C9.38585 1.68769 8.70757 1.40674 8.00033 1.40674C7.29308 1.40674 6.6148 1.68769 6.11471 2.18779C5.61461 2.68788 5.33366 3.36616 5.33366 4.0734V5.3334H4.66699C4.13656 5.3334 3.62785 5.54412 3.25278 5.91919C2.87771 6.29426 2.66699 6.80297 2.66699 7.3334V12.6667C2.66699 13.1972 2.87771 13.7059 3.25278 14.081C3.62785 14.456 4.13656 14.6667 4.66699 14.6667H11.3337C11.8641 14.6667 12.3728 14.456 12.7479 14.081C13.1229 13.7059 13.3337 13.1972 13.3337 12.6667V7.3334C13.3337 6.80297 13.1229 6.29426 12.7479 5.91919C12.3728 5.54412 11.8641 5.3334 11.3337 5.3334ZM6.66699 4.0734C6.65802 3.71027 6.79329 3.35837 7.04318 3.09474C7.29307 2.8311 7.63723 2.67721 8.00033 2.66674C8.36342 2.67721 8.70758 2.8311 8.95747 3.09474C9.20736 3.35837 9.34263 3.71027 9.33366 4.0734V5.3334H6.66699V4.0734ZM12.0003 12.6667C12.0003 12.8435 11.9301 13.0131 11.8051 13.1381C11.68 13.2632 11.5105 13.3334 11.3337 13.3334H4.66699C4.49018 13.3334 4.32061 13.2632 4.19559 13.1381C4.07056 13.0131 4.00033 12.8435 4.00033 12.6667V7.3334C4.00033 7.15659 4.07056 6.98702 4.19559 6.862C4.32061 6.73698 4.49018 6.66674 4.66699 6.66674H11.3337C11.5105 6.66674 11.68 6.73698 11.8051 6.862C11.9301 6.98702 12.0003 7.15659 12.0003 7.3334V12.6667Z" fill="#899CC9"/>
<path d="M8 8C7.60444 8 7.21776 8.1173 6.88886 8.33706C6.55996 8.55682 6.30362 8.86918 6.15224 9.23463C6.00087 9.60009 5.96126 10.0022 6.03843 10.3902C6.1156 10.7781 6.30608 11.1345 6.58579 11.4142C6.86549 11.6939 7.22186 11.8844 7.60982 11.9616C7.99778 12.0387 8.39992 11.9991 8.76537 11.8478C9.13082 11.6964 9.44318 11.44 9.66294 11.1111C9.8827 10.7822 10 10.3956 10 10C10 9.46957 9.78929 8.96086 9.41422 8.58579C9.03914 8.21071 8.53043 8 8 8ZM8 10.6667C7.86815 10.6667 7.73925 10.6276 7.62962 10.5543C7.51999 10.4811 7.43454 10.3769 7.38408 10.2551C7.33362 10.1333 7.32042 9.99926 7.34614 9.86994C7.37187 9.74062 7.43536 9.62183 7.5286 9.5286C7.62183 9.43536 7.74062 9.37187 7.86994 9.34614C7.99926 9.32042 8.13331 9.33362 8.25512 9.38408C8.37694 9.43454 8.48106 9.51999 8.55431 9.62962C8.62757 9.73925 8.66667 9.86815 8.66667 10C8.66667 10.1768 8.59643 10.3464 8.47141 10.4714C8.34638 10.5964 8.17681 10.6667 8 10.6667Z" fill="#899CC9"/>
</svg>
